HIERARCHY
ROOT hip
{
  OFFSET 0 90.174 2.4664
  CHANNELS 6 Xposition Yposition Zposition Zrotation Xrotation Yrotation
  JOINT abdomen
  {
    OFFSET 0 -1.186 -1.5018
    CHANNELS 6 Xposition Yposition Zposition Zrotation Xrotation Yrotation
    JOINT abdomen2
    {
      OFFSET 0 9.964 0.2134
      CHANNELS 6 Xposition Yposition Zposition Zrotation Xrotation Yrotation
      JOINT chest
      {
        OFFSET 0 13.134 -3.2573
        CHANNELS 6 Xposition Yposition Zposition Zrotation Xrotation Yrotation
        JOINT neck
        {
          OFFSET 0 20.686 -1.6905
          CHANNELS 6 Xposition Yposition Zposition Zrotation Xrotation Yrotation
          JOINT head
          {
            OFFSET 0 7.238 -0.1237
            CHANNELS 6 Xposition Yposition Zposition Zrotation Xrotation Yrotation
            End Site
            {
              OFFSET 0 0 0
            }
          }
        }
        JOINT lCollar
        {
          OFFSET 1.7069 20.075 5.0056
          CHANNELS 6 Xposition Yposition Zposition Zrotation Xrotation Yrotation
          JOINT lShldr
          {
            OFFSET 13.6458 -0.047 -4.849
            CHANNELS 6 Xposition Yposition Zposition Zrotation Xrotation Yrotation
            JOINT lForeArm
            {
              OFFSET 28.3255 -0.9759 2.2888
              CHANNELS 6 Xposition Yposition Zposition Zrotation Xrotation Yrotation
              JOINT lHand
              {
                OFFSET 22.1583 -0.53 10.8316
                CHANNELS 6 Xposition Yposition Zposition Zrotation Xrotation Yrotation
                JOINT lThumb1
                {
                  OFFSET 0.786 0.112 2.5817
                  CHANNELS 6 Xposition Yposition Zposition Zrotation Xrotation Yrotation
                  JOINT lThumb2
                  {
                    OFFSET 0.3601 -0.878 4.2331
                    CHANNELS 6 Xposition Yposition Zposition Zrotation Xrotation Yrotation
                    JOINT lThumb2_End
                    {
                      OFFSET 1.8127 -1.216 2.2227
                      CHANNELS 6 Xposition Yposition Zposition Zrotation Xrotation Yrotation
                      End Site
                      {
                        OFFSET 0.0181 -0.0122 0.0222
                      }
                    }
                  }
                }
                JOINT lCarpal1
                {
                  OFFSET 0.9571 1.114 1.7695
                  CHANNELS 6 Xposition Yposition Zposition Zrotation Xrotation Yrotation
                  JOINT lIndex1
                  {
                    OFFSET 4.1246 0.487 4.1451
                    CHANNELS 6 Xposition Yposition Zposition Zrotation Xrotation Yrotation
                    JOINT lIndex2
                    {
                      OFFSET 3.4052 -1.454 2.7682
                      CHANNELS 6 Xposition Yposition Zposition Zrotation Xrotation Yrotation
                      JOINT lIndex2_End
                      {
                        OFFSET 1.4531 -1.795 1.2713
                        CHANNELS 6 Xposition Yposition Zposition Zrotation Xrotation Yrotation
                        End Site
                        {
                          OFFSET 0.0145 -0.0179 0.0127
                        }
                      }
                    }
                  }
                  JOINT lMid1
                  {
                    OFFSET 5.6954 0.21 2.1184
                    CHANNELS 6 Xposition Yposition Zposition Zrotation Xrotation Yrotation
                    JOINT lMid2
                    {
                      OFFSET 3.9766 -1.54 2.3863
                      CHANNELS 6 Xposition Yposition Zposition Zrotation Xrotation Yrotation
                      JOINT lMid2_End
                      {
                        OFFSET 1.4042 -1.926 1.125
                        CHANNELS 6 Xposition Yposition Zposition Zrotation Xrotation Yrotation
                        End Site
                        {
                          OFFSET 0.014 -0.0193 0.0113
                        }
                      }
                    }
                  }
                }
                JOINT lCarpal2
                {
                  OFFSET 2.0956 0.66 -0.3894
                  CHANNELS 6 Xposition Yposition Zposition Zrotation Xrotation Yrotation
                  JOINT lRing1
                  {
                    OFFSET 5.0395 -0.09 2.4971
                    CHANNELS 6 Xposition Yposition Zposition Zrotation Xrotation Yrotation
                    JOINT lRing2
                    {
                      OFFSET 3.7921 -1.552 1.4806
                      CHANNELS 6 Xposition Yposition Zposition Zrotation Xrotation Yrotation
                      JOINT lRing2_End
                      {
                        OFFSET 1.4655 -1.808 0.9609
                        CHANNELS 6 Xposition Yposition Zposition Zrotation Xrotation Yrotation
                        End Site
                        {
                          OFFSET 0.0147 -0.0181 0.0096
                        }
                      }
                    }
                  }
                  JOINT lPinky1
                  {
                    OFFSET 4.9141 -1.269 0.3591
                    CHANNELS 6 Xposition Yposition Zposition Zrotation Xrotation Yrotation
                    JOINT lPinky2
                    {
                      OFFSET 3.1477 -1.685 0.8462
                      CHANNELS 6 Xposition Yposition Zposition Zrotation Xrotation Yrotation
                      JOINT lPinky2_End
                      {
                        OFFSET 0.8055 -1.585 0.7955
                        CHANNELS 6 Xposition Yposition Zposition Zrotation Xrotation Yrotation
                        End Site
                        {
                          OFFSET 0.0081 -0.0158 0.008
                        }
                      }
                    }
                  }
                }
              }
            }
          }
        }
        JOINT rCollar
        {
          OFFSET -1.7069 20.075 5.0056
          CHANNELS 6 Xposition Yposition Zposition Zrotation Xrotation Yrotation
          JOINT rShldr
          {
            OFFSET -13.6458 -0.047 -4.849
            CHANNELS 6 Xposition Yposition Zposition Zrotation Xrotation Yrotation
            JOINT rForeArm
            {
              OFFSET -28.3255 -0.9759 2.2888
              CHANNELS 6 Xposition Yposition Zposition Zrotation Xrotation Yrotation
              JOINT rHand
              {
                OFFSET -22.1583 -0.53 10.8316
                CHANNELS 6 Xposition Yposition Zposition Zrotation Xrotation Yrotation
                JOINT rThumb1
                {
                  OFFSET -0.786 0.112 2.5817
                  CHANNELS 6 Xposition Yposition Zposition Zrotation Xrotation Yrotation
                  JOINT rThumb2
                  {
                    OFFSET -0.3601 -0.878 4.2331
                    CHANNELS 6 Xposition Yposition Zposition Zrotation Xrotation Yrotation
                    JOINT rThumb2_End
                    {
                      OFFSET -1.8127 -1.216 2.2227
                      CHANNELS 6 Xposition Yposition Zposition Zrotation Xrotation Yrotation
                      End Site
                      {
                        OFFSET -0.0181 -0.0122 0.0222
                      }
                    }
                  }
                }
                JOINT rCarpal1
                {
                  OFFSET -0.9571 1.114 1.7695
                  CHANNELS 6 Xposition Yposition Zposition Zrotation Xrotation Yrotation
                  JOINT rIndex1
                  {
                    OFFSET -4.1246 0.487 4.1451
                    CHANNELS 6 Xposition Yposition Zposition Zrotation Xrotation Yrotation
                    JOINT rIndex2
                    {
                      OFFSET -3.4052 -1.454 2.7682
                      CHANNELS 6 Xposition Yposition Zposition Zrotation Xrotation Yrotation
                      JOINT rIndex2_End
                      {
                        OFFSET -1.4531 -1.795 1.2713
                        CHANNELS 6 Xposition Yposition Zposition Zrotation Xrotation Yrotation
                        End Site
                        {
                          OFFSET -0.0145 -0.018 0.0127
                        }
                      }
                    }
                  }
                  JOINT rMid1
                  {
                    OFFSET -5.6954 0.21 2.1184
                    CHANNELS 6 Xposition Yposition Zposition Zrotation Xrotation Yrotation
                    JOINT rMid2
                    {
                      OFFSET -3.9766 -1.54 2.3863
                      CHANNELS 6 Xposition Yposition Zposition Zrotation Xrotation Yrotation
                      JOINT rMid2_End
                      {
                        OFFSET -1.4042 -1.926 1.125
                        CHANNELS 6 Xposition Yposition Zposition Zrotation Xrotation Yrotation
                        End Site
                        {
                          OFFSET -0.014 -0.0193 0.0113
                        }
                      }
                    }
                  }
                }
                JOINT rCarpal2
                {
                  OFFSET -2.0956 0.66 -0.3894
                  CHANNELS 6 Xposition Yposition Zposition Zrotation Xrotation Yrotation
                  JOINT rRing1
                  {
                    OFFSET -5.0395 -0.09 2.4971
                    CHANNELS 6 Xposition Yposition Zposition Zrotation Xrotation Yrotation
                    JOINT rRing2
                    {
                      OFFSET -3.7921 -1.552 1.4806
                      CHANNELS 6 Xposition Yposition Zposition Zrotation Xrotation Yrotation
                      JOINT rRing2_End
                      {
                        OFFSET -1.4655 -1.808 0.9609
                        CHANNELS 6 Xposition Yposition Zposition Zrotation Xrotation Yrotation
                        End Site
                        {
                          OFFSET -0.0147 -0.0181 0.0096
                        }
                      }
                    }
                  }
                  JOINT rPinky1
                  {
                    OFFSET -4.9141 -1.269 0.3592
                    CHANNELS 6 Xposition Yposition Zposition Zrotation Xrotation Yrotation
                    JOINT rPinky2
                    {
                      OFFSET -3.1477 -1.685 0.8462
                      CHANNELS 6 Xposition Yposition Zposition Zrotation Xrotation Yrotation
                      JOINT rPinky2_End
                      {
                        OFFSET -0.8055 -1.585 0.7955
                        CHANNELS 6 Xposition Yposition Zposition Zrotation Xrotation Yrotation
                        End Site
                        {
                          OFFSET -0.0081 -0.0158 0.008
                        }
                      }
                    }
                  }
                }
              }
            }
          }
        }
      }
    }
  }
  JOINT lThigh
  {
    OFFSET 8.367 -8.2066 0.5982
    CHANNELS 6 Xposition Yposition Zposition Zrotation Xrotation Yrotation
    JOINT lShin
    {
      OFFSET 2.1923 -43.463 -0.4932
      CHANNELS 6 Xposition Yposition Zposition Zrotation Xrotation Yrotation
      JOINT lFoot
      {
        OFFSET 0.7333 -45.8593 -2.6451
        CHANNELS 6 Xposition Yposition Zposition Zrotation Xrotation Yrotation
        End Site
        {
          OFFSET 2.6618 -4.2699 12.3931
        }
      }
    }
  }
  JOINT rThigh
  {
    OFFSET -8.367 -8.2066 0.5982
    CHANNELS 6 Xposition Yposition Zposition Zrotation Xrotation Yrotation
    JOINT rShin
    {
      OFFSET -2.1923 -43.463 -0.4931
      CHANNELS 6 Xposition Yposition Zposition Zrotation Xrotation Yrotation
      JOINT rFoot
      {
        OFFSET -0.7333 -45.8593 -2.6451
        CHANNELS 6 Xposition Yposition Zposition Zrotation Xrotation Yrotation
        End Site
        {
          OFFSET -2.6618 -4.2699 12.3931
        }
      }
    }
  }
}
MOTION
Frames:	4
Frame Time:	0.0333333
0.000183086 33.9169 12.7216 -5.084e-015 15.3999 180 0 -1.186 -1.5018 0.0195143 -6.35512 -0.086944 0 9.964 0.2134 0.0295304 -12.7103 -0.17331 0 13.134 -3.2573 0.0295304 -12.7103 -0.17331 2.77556e-017 20.686 -1.6905 4.16429 8.55244 -0.437435 0 7.238 -0.1237 9.76822 -18.9555 -14.2363 1.7069 20.075 5.0056 -6.95311 0.243206 -1.13115 13.6458 -0.047 -4.849 -70.0702 0.517147 62.3913 28.3255 -0.9759 2.2888 -1.38118 0.956021 6.50548 22.1583 -0.53 10.8316 -5.79157 2.38983 1.06402 0.786 0.112 2.5817 3.97569e-016 -1.59028e-015 -0 0.3601 -0.878 4.2331 -1.49921e-007 -1.17124e-006 1.19302e-006 1.8127 -1.216 2.2227 2.64834e-031 -2.38542e-015 6.36111e-015 0.9571 1.114 1.7695 3.97569e-016 -2.38542e-015 -0 4.1246 0.487 4.1451 7.95139e-016 0 3.18055e-015 3.4052 -1.454 2.7682 -1.49921e-007 -1.17124e-006 1.19302e-006 1.4531 -1.795 1.2713 3.97569e-016 -1.59028e-015 3.18055e-015 5.6954 0.21 2.1184 7.95139e-016 0 3.18055e-015 3.9766 -1.54 2.3863 -1.49921e-007 -1.17124e-006 1.19302e-006 1.4042 -1.926 1.125 3.97569e-016 -1.59028e-015 3.18055e-015 2.0956 0.66 -0.3894 3.97569e-016 -2.38542e-015 -0 5.0395 -0.09 2.4971 7.95139e-016 0 3.18055e-015 3.7921 -1.552 1.4806 -1.49921e-007 -1.17124e-006 1.19302e-006 1.4655 -1.808 0.9609 3.97569e-016 -1.59028e-015 3.18055e-015 4.9141 -1.269 0.3591 7.95139e-016 0 3.18055e-015 3.1477 -1.685 0.8462 -1.49921e-007 -1.17124e-006 1.19302e-006 0.8055 -1.585 0.7955 3.97569e-016 -1.59028e-015 3.18055e-015 -1.7069 20.075 5.0056 6.88838 0.23501 1.12799 -13.6458 -0.047 -4.849 67.6846 -0.82992 -59.7516 -28.3255 -0.9759 2.2888 0.227237 -0.920133 -1.71444 -22.1583 -0.53 10.8316 7.03181 2.33364 0.0172842 -0.786 0.112 2.5817 2.98187e-009 -1.1386e-006 -1.24579e-006 -0.3601 -0.878 4.2331 -7.95139e-016 3.18055e-015 1.59028e-015 -1.8127 -1.216 2.2227 -1.76556e-031 3.18055e-015 3.18055e-015 -0.9571 1.114 1.7695 7.95139e-016 0 -1.59028e-015 -4.1246 0.487 4.1451 2.98187e-009 -1.1386e-006 -1.24579e-006 -3.4052 -1.454 2.7682 1.32417e-031 -4.77083e-015 1.59028e-015 -1.4531 -1.795 1.2713 2.64834e-031 -4.77083e-015 3.18055e-015 -5.6954 0.21 2.1184 2.98187e-009 -1.1386e-006 -1.24579e-006 -3.9766 -1.54 2.3863 1.32417e-031 -4.77083e-015 1.59028e-015 -1.4042 -1.926 1.125 2.64834e-031 -4.77083e-015 3.18055e-015 -2.0956 0.66 -0.3894 7.95139e-016 0 -1.59028e-015 -5.0395 -0.09 2.4971 2.98187e-009 -1.1386e-006 -1.24579e-006 -3.7921 -1.552 1.4806 1.32417e-031 -4.77083e-015 1.59028e-015 -1.4655 -1.808 0.9609 2.64834e-031 -4.77083e-015 3.18055e-015 -4.9141 -1.269 0.3592 2.98187e-009 -1.1386e-006 -1.24579e-006 -3.1477 -1.685 0.8462 1.32417e-031 -4.77083e-015 1.59028e-015 -0.8055 -1.585 0.7955 2.64834e-031 -4.77083e-015 3.18055e-015 8.367 -8.2066 0.5982 34.3586 -23.9649 36.8082 2.1923 -43.463 -0.4932 138.069 43.497 -150.382 0.7333 -45.8593 -2.6451 10.7967 72.8672 7.94884 -8.367 -8.2066 0.5982 -34.3647 -23.9629 -36.8142 -2.1923 -43.463 -0.4931 -138.07 43.4983 150.378 -0.7333 -45.8593 -2.6451 -10.8041 72.8679 -7.9461 
0.000198168 33.7914 12.7541 -5.03122e-015 15.7997 180 0 -1.186 -1.5018 0.0195144 -6.35511 -0.086944 3.46945e-018 9.964 0.2134 0.0295304 -12.7103 -0.17331 -1.38778e-017 13.134 -3.2573 0.0295304 -12.7103 -0.17331 8.32667e-017 20.686 -1.6905 4.13791 9.24723 -0.481907 8.88178e-016 7.238 -0.1237 9.72986 -18.8559 -14.1707 1.7069 20.075 5.0056 -5.89124 0.66146 -2.27297 13.6458 -0.047 -4.849 -70.6255 -0.142944 63.0262 28.3255 -0.9759 2.2888 -2.84255 1.28737 5.23052 22.1583 -0.53 10.8316 -5.06618 2.22131 2.10526 0.786 0.112 2.5817 7.95139e-016 1.59028e-015 -3.18055e-015 0.3601 -0.878 4.2331 3.97569e-016 -7.95139e-016 -3.18055e-015 1.8127 -1.216 2.2227 -3.12882e-007 -1.19238e-006 -1.17182e-006 0.9571 1.114 1.7695 3.97569e-016 1.59028e-015 -6.36111e-015 4.1246 0.487 4.1451 3.97569e-016 1.59028e-015 3.18055e-015 3.4052 -1.454 2.7682 7.95139e-016 -1.59028e-015 -0 1.4531 -1.795 1.2713 -3.12882e-007 -1.19238e-006 -1.17182e-006 5.6954 0.21 2.1184 3.97569e-016 1.59028e-015 3.18055e-015 3.9766 -1.54 2.3863 7.95139e-016 -1.59028e-015 -0 1.4042 -1.926 1.125 -3.12882e-007 -1.19238e-006 -1.17182e-006 2.0956 0.66 -0.3894 3.97569e-016 1.59028e-015 -6.36111e-015 5.0395 -0.09 2.4971 3.97569e-016 1.59028e-015 3.18055e-015 3.7921 -1.552 1.4806 7.95139e-016 -1.59028e-015 -0 1.4655 -1.808 0.9609 -3.12882e-007 -1.19238e-006 -1.17182e-006 4.9141 -1.269 0.3591 3.97569e-016 1.59028e-015 3.18055e-015 3.1477 -1.685 0.8462 7.95139e-016 -1.59028e-015 -0 0.8055 -1.585 0.7955 -3.12882e-007 -1.19238e-006 -1.17182e-006 -1.7069 20.075 5.0056 5.76504 0.644146 2.27064 -13.6458 -0.047 -4.849 65.7933 -2.6937 -58.5357 -28.3255 -0.9759 2.2888 2.52319 -2.3151 5.48488 -22.1583 -0.53 10.8316 7.57156 2.05834 0.0117516 -0.786 0.112 2.5817 -3.252e-007 3.06899e-008 -2.39153e-006 -0.3601 -0.878 4.2331 -3.88288e-007 -5.59521e-007 -2.99709e-006 -1.8127 -1.216 2.2227 -6.30873e-008 -5.90211e-007 -6.05556e-007 -0.9571 1.114 1.7695 -5.96354e-016 9.54166e-015 1.59028e-015 -4.1246 0.487 4.1451 -3.252e-007 3.06899e-008 -2.39153e-006 -3.4052 -1.454 2.7682 -3.88288e-007 -5.59521e-007 -2.99709e-006 -1.4531 -1.795 1.2713 -6.30873e-008 -5.90211e-007 -6.05556e-007 -5.6954 0.21 2.1184 -3.252e-007 3.06899e-008 -2.39153e-006 -3.9766 -1.54 2.3863 -3.88288e-007 -5.59521e-007 -2.99709e-006 -1.4042 -1.926 1.125 -6.30873e-008 -5.90211e-007 -6.05556e-007 -2.0956 0.66 -0.3894 -5.96354e-016 9.54166e-015 1.59028e-015 -5.0395 -0.09 2.4971 -3.252e-007 3.06899e-008 -2.39153e-006 -3.7921 -1.552 1.4806 -3.88288e-007 -5.59521e-007 -2.99709e-006 -1.4655 -1.808 0.9609 -6.30873e-008 -5.90211e-007 -6.05556e-007 -4.9141 -1.269 0.3592 -3.252e-007 3.06899e-008 -2.39153e-006 -3.1477 -1.685 0.8462 -3.88288e-007 -5.59521e-007 -2.99709e-006 -0.8055 -1.585 0.7955 -6.30873e-008 -5.90211e-007 -6.05556e-007 8.367 -8.2066 0.5982 34.6917 -23.6546 36.7985 2.1923 -43.463 -0.4932 138.073 43.4957 -150.4 0.7333 -45.8593 -2.6451 11.9956 72.8384 7.00107 -8.367 -8.2066 0.5982 -34.6989 -23.6526 -36.8056 -2.1923 -43.463 -0.4931 -138.074 43.4969 150.396 -0.7333 -45.8593 -2.6451 -12.0052 72.8394 -6.99528 
0.000211859 33.6656 12.7865 -4.97823e-015 16.1995 180 0 -1.186 -1.5018 0.0195144 -6.35513 -0.0869441 -6.93889e-018 9.964 0.2134 0.0295304 -12.7103 -0.17331 1.38778e-017 13.134 -3.2573 0.0295304 -12.7103 -0.17331 -8.32667e-017 20.686 -1.6905 4.11201 9.94209 -0.526157 0 7.238 -0.1237 9.6914 -18.7563 -14.1051 1.7069 20.075 5.0056 -4.8177 1.05966 -3.42616 13.6458 -0.047 -4.849 -71.1742 -0.809884 63.6555 28.3255 -0.9759 2.2888 -4.30311 1.65279 3.9584 22.1583 -0.53 10.8316 -4.3364 2.06571 3.15061 0.786 0.112 2.5817 1.76556e-031 1.59028e-015 -6.36111e-015 0.3601 -0.878 4.2331 -1.19271e-015 2.38542e-015 -9.54166e-015 1.8127 -1.216 2.2227 -7.95139e-016 7.95139e-016 -6.36111e-015 0.9571 1.114 1.7695 7.95139e-016 1.59028e-015 -6.36111e-015 4.1246 0.487 4.1451 3.97569e-016 3.18055e-015 -0 3.4052 -1.454 2.7682 0 3.18055e-015 -0 1.4531 -1.795 1.2713 -7.95139e-016 2.38542e-015 -0 5.6954 0.21 2.1184 3.97569e-016 3.18055e-015 -0 3.9766 -1.54 2.3863 0 3.18055e-015 -0 1.4042 -1.926 1.125 -7.95139e-016 2.38542e-015 -0 2.0956 0.66 -0.3894 7.95139e-016 1.59028e-015 -6.36111e-015 5.0395 -0.09 2.4971 3.97569e-016 3.18055e-015 -0 3.7921 -1.552 1.4806 0 3.18055e-015 -0 1.4655 -1.808 0.9609 -7.95139e-016 2.38542e-015 -0 4.9141 -1.269 0.3591 3.97569e-016 3.18055e-015 -0 3.1477 -1.685 0.8462 0 3.18055e-015 -0 0.8055 -1.585 0.7955 -7.95139e-016 2.38542e-015 -0 -1.7069 20.075 5.0056 4.62983 1.03197 3.42509 -13.6458 -0.047 -4.849 63.9321 -4.60261 -57.3758 -28.3255 -0.9759 2.2888 5.21448 -2.82722 12.6144 -22.1583 -0.53 10.8316 8.11143 1.78287 0.00882786 -0.786 0.112 2.5817 3.97569e-016 3.18055e-015 7.95139e-016 -0.3601 -0.878 4.2331 3.97569e-016 6.36111e-015 2.38542e-015 -1.8127 -1.216 2.2227 -4.41391e-032 3.18055e-015 7.95139e-016 -0.9571 1.114 1.7695 7.95139e-016 0 7.95139e-016 -4.1246 0.487 4.1451 2.38542e-015 6.36111e-015 6.36111e-015 -3.4052 -1.454 2.7682 -8.82781e-032 6.36111e-015 7.95139e-016 -1.4531 -1.795 1.2713 3.97569e-016 0 -0 -5.6954 0.21 2.1184 2.38542e-015 6.36111e-015 6.36111e-015 -3.9766 -1.54 2.3863 -8.82781e-032 6.36111e-015 7.95139e-016 -1.4042 -1.926 1.125 3.97569e-016 0 -0 -2.0956 0.66 -0.3894 7.95139e-016 0 7.95139e-016 -5.0395 -0.09 2.4971 2.38542e-015 6.36111e-015 6.36111e-015 -3.7921 -1.552 1.4806 -8.82781e-032 6.36111e-015 7.95139e-016 -1.4655 -1.808 0.9609 3.97569e-016 0 -0 -4.9141 -1.269 0.3592 2.38542e-015 6.36111e-015 6.36111e-015 -3.1477 -1.685 0.8462 -8.82781e-032 6.36111e-015 7.95139e-016 -0.8055 -1.585 0.7955 3.97569e-016 0 -0 8.367 -8.2066 0.5982 35.0244 -23.3443 36.7865 2.1923 -43.463 -0.4932 138.077 43.4945 -150.418 0.7333 -45.8593 -2.6451 13.1906 72.8038 6.05703 -8.367 -8.2066 0.5982 -35.0327 -23.3423 -36.7947 -2.1923 -43.463 -0.4931 -138.078 43.4956 150.414 -0.7333 -45.8593 -2.6451 -13.2023 72.805 -6.04822 
0.000228705 33.5394 12.8188 -4.92501e-015 16.5995 180 0 -1.186 -1.5018 0.0195143 -6.35512 -0.0869438 -6.93889e-018 9.964 0.2134 0.0295303 -12.7103 -0.17331 -1.38778e-017 13.134 -3.2573 0.0295304 -12.7103 -0.17331 2.77556e-017 20.686 -1.6905 4.08662 10.637 -0.570188 8.88178e-016 7.238 -0.1237 9.65283 -18.6568 -14.0394 1.7069 20.075 5.0056 -3.73314 1.4371 -4.59007 13.6458 -0.047 -4.849 -71.7161 -1.4834 64.2792 28.3255 -0.9759 2.2888 -5.76133 2.05207 2.69071 22.1583 -0.53 10.8316 -3.60258 1.92318 4.19969 0.786 0.112 2.5817 -1.56104e-007 -5.95571e-007 -5.86497e-007 0.3601 -0.878 4.2331 6.70444e-008 5.1933e-007 -1.69313e-006 1.8127 -1.216 2.2227 -2.25923e-007 -5.37479e-007 -6.71009e-007 0.9571 1.114 1.7695 -7.95139e-016 -2.38542e-015 6.36111e-015 4.1246 0.487 4.1451 -1.56104e-007 -5.95571e-007 -5.86497e-007 3.4052 -1.454 2.7682 6.70444e-008 5.1933e-007 -1.69313e-006 1.4531 -1.795 1.2713 -2.25923e-007 -5.37479e-007 -6.71009e-007 5.6954 0.21 2.1184 -1.56104e-007 -5.95571e-007 -5.86497e-007 3.9766 -1.54 2.3863 6.70444e-008 5.1933e-007 -1.69313e-006 1.4042 -1.926 1.125 -2.25923e-007 -5.37479e-007 -6.71009e-007 2.0956 0.66 -0.3894 -7.95139e-016 -2.38542e-015 6.36111e-015 5.0395 -0.09 2.4971 -1.56104e-007 -5.95571e-007 -5.86497e-007 3.7921 -1.552 1.4806 6.70444e-008 5.1933e-007 -1.69313e-006 1.4655 -1.808 0.9609 -2.25923e-007 -5.37479e-007 -6.71009e-007 4.9141 -1.269 0.3591 -1.56104e-007 -5.95571e-007 -5.86497e-007 3.1477 -1.685 0.8462 6.70444e-008 5.1933e-007 -1.69313e-006 0.8055 -1.585 0.7955 -2.25923e-007 -5.37479e-007 -6.71009e-007 -1.7069 20.075 5.0056 3.48348 1.39781 4.59062 -13.6458 -0.047 -4.849 62.1004 -6.55169 -56.2729 -28.3255 -0.9759 2.2888 7.94945 -3.0012 19.7623 -22.1583 -0.53 10.8316 8.65142 1.50728 0.00848215 -0.786 0.112 2.5817 5.64831e-007 1.74584e-006 1.78597e-006 -0.3601 -0.878 4.2331 3.76554e-007 1.16389e-006 1.19064e-006 -1.8127 -1.216 2.2227 7.53107e-007 2.32779e-006 2.38129e-006 -0.9571 1.114 1.7695 0 0 -1.59028e-015 -4.1246 0.487 4.1451 5.64831e-007 1.74584e-006 1.78597e-006 -3.4052 -1.454 2.7682 3.76554e-007 1.16389e-006 1.19064e-006 -1.4531 -1.795 1.2713 7.53107e-007 2.32779e-006 2.38129e-006 -5.6954 0.21 2.1184 5.64831e-007 1.74584e-006 1.78597e-006 -3.9766 -1.54 2.3863 3.76554e-007 1.16389e-006 1.19064e-006 -1.4042 -1.926 1.125 7.53107e-007 2.32779e-006 2.38129e-006 -2.0956 0.66 -0.3894 0 0 -1.59028e-015 -5.0395 -0.09 2.4971 5.64831e-007 1.74584e-006 1.78597e-006 -3.7921 -1.552 1.4806 3.76554e-007 1.16389e-006 1.19064e-006 -1.4655 -1.808 0.9609 7.53107e-007 2.32779e-006 2.38129e-006 -4.9141 -1.269 0.3592 5.64831e-007 1.74584e-006 1.78597e-006 -3.1477 -1.685 0.8462 3.76554e-007 1.16389e-006 1.19064e-006 -0.8055 -1.585 0.7955 7.53107e-007 2.32779e-006 2.38129e-006 8.367 -8.2066 0.5982 35.3567 -23.0341 36.7723 2.1923 -43.463 -0.4932 138.081 43.4934 -150.436 0.7333 -45.8593 -2.6451 14.3813 72.7637 5.11716 -8.367 -8.2066 0.5982 -35.3662 -23.0321 -36.7816 -2.1923 -43.463 -0.4931 -138.082 43.4945 150.432 -0.7333 -45.8593 -2.6451 -14.3952 72.765 -5.10517 
